<svg width="36" height="36" viewBox="0 0 36 36" fill="none" xmlns="http://www.w3.org/2000/svg">
<path d="M11.134 8.5C11.5189 7.83333 12.4811 7.83333 12.866 8.5L16.3301 14.5C16.715 15.1667 16.2339 16 15.4641 16H8.5359C7.7661 16 7.28497 15.1667 7.66987 14.5L11.134 8.5Z" fill="white"/>
<path d="M23.134 16.5C23.5189 17.1667 24.4811 17.1667 24.866 16.5L28.3301 10.5C28.715 9.83333 28.2339 9 27.4641 9H20.5359C19.7661 9 19.285 9.83333 19.6699 10.5L23.134 16.5Z" fill="white"/>
<path d="M8 21C8 21 11 27 18 27C25 27 28 21 28 21" stroke="white" stroke-width="3" stroke-linecap="round"/>
</svg>
